<?xml version="1.0" encoding="UTF-8"?>
<!-- Created with Inkscape (http://www.inkscape.org/) -->
<svg width="134.41mm" height="134.41mm" version="1.1" viewBox="0 0 134.41 134.41" xmlns="http://www.w3.org/2000/svg" xmlns:cc="http://creativecommons.org/ns#" xmlns:dc="http://purl.org/dc/elements/1.1/" xmlns:rdf="http://www.w3.org/1999/02/22-rdf-syntax-ns#">
 <metadata>
  <rdf:RDF>
   <cc:Work rdf:about="">
    <dc:format>image/svg+xml</dc:format>
    <dc:type rdf:resource="http://purl.org/dc/dcmitype/StillImage"/>
    <dc:title/>
   </cc:Work>
  </rdf:RDF>
 </metadata>
 <g transform="translate(-48.457 -122.45)">
  <g fill="none" stroke="#060000" stroke-width="1.9">
   <path d="m145.94 180.08c2.8896 0 5.2158 2.3263 5.2158 5.2158m0 11.34v19.655c0 2.8896-2.3262 5.2158-5.2158 5.2158h-62.533c-2.8896 0-5.2158-2.3262-5.2158-5.2158v-30.995c0-2.8896 2.3263-5.2158 5.2158-5.2158" stroke-linecap="round"/>
   <path d="m83.408 180.08c16.762 9.9057 33.524 19.811 50.285 29.717m8.3809 4.9528 8.0468 4.6188" stroke-linecap="round"/>
   <path d="m145.94 180.08-67.081 39.289"/>
   <path d="m87.478 181.97v-21.573c0-2.8896 2.3263-5.2158 5.2158-5.2158h44.186c2.8896 0 5.2158 2.3262 5.2158 5.2158v21.573" stroke-linecap="round"/>
   <path d="m149.59 181.52-7.7174-7.3499"/>
   <path d="m79.678 181.66 7.7174-7.3499"/>
   <g stroke-linecap="round">
    <path d="m126.9 180.53s0.0916 0.11815 0.80224-1.5511c0.71064-1.6692 1.1045-3.501 1.1045-5.4182 0-7.6687-6.302-13.969-13.971-13.969s-13.969 6.3001-13.969 13.969 6.3001 13.971 13.969 13.971c1.9172 0 3.7489-0.39388 5.4181-1.1045m-1.082-8.5301c-1.0994 1.0994-2.6262 1.7713-4.3361 1.7713-3.4197 0-6.1074-2.6877-6.1074-6.1074 0-3.4197 2.6877-6.1074 6.1074-6.1074 1.7099 0 3.2367 0.67192 4.3361 1.7713" color="#000000" color-rendering="auto" dominant-baseline="auto" image-rendering="auto" shape-rendering="auto" solid-color="#000000" style="font-feature-settings:normal;font-variant-alternates:normal;font-variant-caps:normal;font-variant-ligatures:normal;font-variant-numeric:normal;font-variant-position:normal;isolation:auto;mix-blend-mode:normal;shape-padding:0;text-decoration-color:#000000;text-decoration-line:none;text-decoration-style:solid;text-indent:0;text-orientation:mixed;text-transform:none;white-space:normal"/>
    <path d="m119.75 167.37s-0.34335 10.899 0 12.284 1.1164 2.6219 3.3756 2.8587c2.2592 0.23687 3.7744-1.9847 3.7744-1.9847"/>
    <path d="m145.94 180.08c2.8896 0 5.2158 2.3263 5.2158 5.2158m0 11.34v19.655c0 2.8896-2.3262 5.2158-5.2158 5.2158h-62.533c-2.8896 0-5.2158-2.3262-5.2158-5.2158v-30.995c0-2.8896 2.3263-5.2158 5.2158-5.2158"/>
    <path d="m83.408 180.08c16.762 9.9057 33.524 19.811 50.285 29.717m8.3809 4.9528 8.0468 4.6188"/>
   </g>
   <path d="m145.94 180.08-67.081 39.289"/>
   <path d="m87.478 181.97v-21.573c0-2.8896 2.3263-5.2158 5.2158-5.2158h44.186c2.8896 0 5.2158 2.3262 5.2158 5.2158v21.573" stroke-linecap="round"/>
   <g>
    <path d="m149.59 181.52-7.7174-7.3499"/>
    <path d="m79.678 181.66 7.7174-7.3499"/>
    <path d="m126.9 180.53s0.0916 0.11815 0.80224-1.5511c0.71064-1.6692 1.1045-3.501 1.1045-5.4182 0-7.6687-6.302-13.969-13.971-13.969s-13.969 6.3001-13.969 13.969 6.3001 13.971 13.969 13.971c1.9172 0 3.7489-0.39388 5.4181-1.1045m-1.082-8.5301c-1.0994 1.0994-2.6262 1.7713-4.3361 1.7713-3.4197 0-6.1074-2.6877-6.1074-6.1074 0-3.4197 2.6877-6.1074 6.1074-6.1074 1.7099 0 3.2367 0.67192 4.3361 1.7713" color="#000000" color-rendering="auto" dominant-baseline="auto" image-rendering="auto" shape-rendering="auto" solid-color="#000000" stroke-linecap="round" style="font-feature-settings:normal;font-variant-alternates:normal;font-variant-caps:normal;font-variant-ligatures:normal;font-variant-numeric:normal;font-variant-position:normal;isolation:auto;mix-blend-mode:normal;shape-padding:0;text-decoration-color:#000000;text-decoration-line:none;text-decoration-style:solid;text-indent:0;text-orientation:mixed;text-transform:none;white-space:normal"/>
    <path d="m119.75 167.37s-0.34335 10.899 0 12.284 1.1164 2.6219 3.3756 2.8587c2.2592 0.23687 3.7744-1.9847 3.7744-1.9847" stroke-linecap="round"/>
   </g>
  </g>
  <g transform="matrix(.26458 0 0 .26458 48.457 122.45)">
   <path d="M 378.764,0 H 129.18 C 57.952,0 0,57.964 0,129.212 V 378.788 C 0,450.036 57.952,508 129.18,508 H 378.764 C 450.024,508 508,450.036 508,378.788 V 129.212 C 508,57.964 450.024,0 378.764,0 Z M 500,378.788 C 500,445.624 445.612,500 378.764,500 H 129.18 C 62.36,500 8,445.624 8,378.788 V 129.212 C 8,62.376 62.36,8 129.18,8 H 378.764 C 445.616,8 500,62.376 500,129.212 Z"/>
   <path d="m480.19 253.97c-2.208 0-4 1.792-4 4v112.02c0 57.568-48.632 106.2-106.2 106.2h-231.99c-57.564 0-106.2-48.636-106.2-106.2v-231.99c0-57.564 48.632-106.19 106.2-106.19h231.08c2.208 0 4-1.792 4-4s-1.792-4-4-4h-231.08c-61.9 0-114.2 52.292-114.2 114.19v231.99c0 61.904 52.296 114.2 114.2 114.2h231.99c61.904 0 114.2-52.3 114.2-114.21v-112.02c0-2.208-1.792-4-4-4z"/>
   <path d="m449.81 58.188c-21.848-21.848-51.272-34.38-80.732-34.38-2.208 0-4 1.792-4 4s1.792 4 4 4c27.356 0 54.72 11.676 75.076 32.036 0.78 0.78 1.804 1.172 2.828 1.172s2.048-0.392 2.828-1.172c1.564-1.564 1.564-4.092 0-5.656z"/>
   <path d="m480.19 166.67c-2.208 0-4 1.792-4 4v59.524c0 2.208 1.792 4 4 4s4-1.792 4-4v-59.524c0-2.208-1.792-4-4-4z"/>
  </g>
 </g>
</svg>
