<?xml version="1.0" encoding="UTF-8"?>
<!-- Created with Inkscape (http://www.inkscape.org/) -->
<svg width="134.41mm" height="134.41mm" version="1.1" viewBox="0 0 134.41 134.41" xmlns="http://www.w3.org/2000/svg" xmlns:cc="http://creativecommons.org/ns#" xmlns:dc="http://purl.org/dc/elements/1.1/" xmlns:rdf="http://www.w3.org/1999/02/22-rdf-syntax-ns#"  fill="#330033">
 <metadata>
  <rdf:RDF>
   <cc:Work rdf:about="">
    <dc:format>image/svg+xml</dc:format>
    <dc:type rdf:resource="http://purl.org/dc/dcmitype/StillImage"/>
    <dc:title/>
   </cc:Work>
  </rdf:RDF>
 </metadata>
 <g transform="translate(-52.992 -69.534)">
  <g transform="matrix(.26458 0 0 .26458 52.992 69.534)">
   <path d="M 378.764,0 H 129.18 C 57.952,0 0,57.964 0,129.212 V 378.788 C 0,450.036 57.952,508 129.18,508 H 378.764 C 450.024,508 508,450.036 508,378.788 V 129.212 C 508,57.964 450.024,0 378.764,0 Z M 500,378.788 C 500,445.624 445.612,500 378.764,500 H 129.18 C 62.36,500 8,445.624 8,378.788 V 129.212 C 8,62.376 62.36,8 129.18,8 H 378.764 C 445.616,8 500,62.376 500,129.212 Z"/>
   <path d="m480.19 253.97c-2.208 0-4 1.792-4 4v112.02c0 57.568-48.632 106.2-106.2 106.2h-231.99c-57.564 0-106.2-48.636-106.2-106.2v-231.99c0-57.564 48.632-106.19 106.2-106.19h231.08c2.208 0 4-1.792 4-4s-1.792-4-4-4h-231.08c-61.9 0-114.2 52.292-114.2 114.19v231.99c0 61.904 52.296 114.2 114.2 114.2h231.99c61.904 0 114.2-52.3 114.2-114.21v-112.02c0-2.208-1.792-4-4-4z"/>
   <path d="m449.81 58.188c-21.848-21.848-51.272-34.38-80.732-34.38-2.208 0-4 1.792-4 4s1.792 4 4 4c27.356 0 54.72 11.676 75.076 32.036 0.78 0.78 1.804 1.172 2.828 1.172s2.048-0.392 2.828-1.172c1.564-1.564 1.564-4.092 0-5.656z"/>
   <path d="m480.19 166.67c-2.208 0-4 1.792-4 4v59.524c0 2.208 1.792 4 4 4s4-1.792 4-4v-59.524c0-2.208-1.792-4-4-4z"/>
  </g>
  <g fill="none" stroke="#000">
   <path d="m111.51 110.08 13.405 17.152 16.87 24.34" stroke-width="2.04"/>
   <circle transform="rotate(7.0509)" cx="108.26" cy="93.736" r="15.952" stroke-linecap="round" stroke-width="2.04"/>
   <g>
    <path d="m82.109 114.09 24.525-19.193" stroke-width="1.8097"/>
    <path d="m84.603 117.2 24.516-19.186" stroke-width="1.8097"/>
    <path d="m96.637 122.47 13.794 16.51 19.44 20.968" stroke-width="2.04"/>
   </g>
   <path d="m120.43 130.82c1.8136 2.383 4.3356 5.5903 1.5903 7.6235-2.7734 2.0016-4.627-0.12107-6.9988-3.0755-2.3718-2.9544-4.3863-5.416-1.5903-7.6235 2.7959-2.2076 4.627 0.12113 6.9988 3.0756z" stroke-linecap="round" stroke-width="1.8097"/>
   <path d="m110.43 138.98 14.488-11.754" stroke-width="1.6933"/>
   <g stroke-linecap="round">
    <path d="m142.13 151.96c2.1276 2.6845-1.0867 4.0401-4.3354 6.4322-3.2488 2.3921-5.483 4.8738-7.4294 2.2305-1.9463-2.6432 1.0867-4.0401 4.3355-6.4322 3.2488-2.3922 5.3017-4.915 7.4293-2.2305z" stroke-width="2.04"/>
    <path d="m167.32 158.9c1.9917 4.3118 0.49092 11.151-5.3503 11.766-5.8412 0.61492-8.5659 2.0468-10.544 9.2373s-5.4287 8.7287-9.6942 8.8337c-4.6598 0.11468-6.7681-3.2627-6.7131-7.003 0.055-3.7403 3.1633-5.5008 7.3393-6.9371 4.176-1.4364 4.4748-5.0755 1.3404-9.4537" stroke-width="2.04"/>
    <path d="m85.327 105.33c0.0465-0.3996 0.40307-0.68721 0.79584-0.64269 0.39291 0.0456 0.6757 0.40452 0.62838 0.80851-0.04709 0.40434-0.40526 0.68925-0.79796 0.64226-0.39279-0.0466-0.67288-0.40805-0.62627-0.80808z" stroke-linejoin="round" stroke-width=".8246"/>
   </g>
   <path d="m135.03 160.69 5.7022 6.0034s1.9172-0.77128 2.7234-1.4053c0.80616-0.63396 2.017-2.2192 2.017-2.2192l-4.4113-7.0068" stroke-width="2.04"/>
   <g stroke-linecap="round" stroke-linejoin="round" stroke-width=".8246">
    <path d="m89.335 102.38c0.0465-0.3996 0.40307-0.68719 0.79584-0.64268 0.39291 0.0456 0.6757 0.4045 0.62839 0.80851-0.04709 0.40434-0.40526 0.68924-0.79796 0.64226-0.39279-0.0466-0.67288-0.40805-0.62627-0.80809z"/>
    <path d="m93.387 99.391c0.0465-0.39962 0.40307-0.6872 0.79584-0.64268 0.39291 0.0456 0.6757 0.4045 0.62839 0.80849-0.04709 0.40435-0.40526 0.68925-0.79796 0.64226-0.39278-0.0466-0.67288-0.40805-0.62627-0.80807z"/>
    <path d="m97.309 96.507c0.0465-0.3996 0.40307-0.68719 0.79584-0.64268 0.39291 0.0456 0.6757 0.40451 0.62838 0.8085-0.04709 0.40435-0.40526 0.68926-0.79796 0.64227-0.39278-0.0466-0.67288-0.40806-0.62626-0.80809z"/>
    <path d="m93.299 95.032c0.04651-0.39962 0.40307-0.6872 0.79584-0.64268 0.39291 0.0456 0.6757 0.4045 0.62839 0.80849-0.04709 0.40435-0.40526 0.68926-0.79796 0.64227-0.39279-0.0466-0.67288-0.40805-0.62627-0.80808z"/>
    <path d="m89.281 97.747c0.0465-0.39961 0.40307-0.68719 0.79584-0.64268 0.39291 0.0456 0.6757 0.40451 0.62838 0.8085-0.04709 0.40433-0.40526 0.68924-0.79796 0.64225-0.39279-0.0466-0.67288-0.40804-0.62627-0.80807z"/>
    <path d="m85.359 100.63c0.0465-0.3996 0.40307-0.68719 0.79584-0.64268 0.39291 0.0456 0.6757 0.4045 0.62838 0.80851-0.04709 0.40435-0.40525 0.68924-0.79796 0.64226-0.39279-0.0466-0.67288-0.40805-0.62627-0.80809z"/>
    <path d="m106.5 106.96c-0.0474 0.39949-0.40309 0.68717-0.79586 0.64267-0.3929-0.0456-0.6757-0.40452-0.62839-0.80851 0.048-0.40422 0.40527-0.68924 0.79797-0.64225 0.39279 0.0466 0.67287 0.40804 0.62628 0.80809z"/>
    <path d="m102.49 109.91c-0.0474 0.39948-0.40307 0.68719-0.79584 0.64268-0.39291-0.0456-0.6757-0.40452-0.62839-0.80851 0.0469-0.40437 0.40527-0.68925 0.79797-0.64226 0.39278 0.0466 0.67288 0.40804 0.62626 0.80809z"/>
    <path d="m98.437 112.9c-0.0465 0.3996-0.40307 0.68719-0.79584 0.64268-0.39291-0.0456-0.6757-0.40451-0.62838-0.80851 0.04709-0.40434 0.40525-0.68924 0.79796-0.64226 0.39278 0.0466 0.67288 0.40806 0.62626 0.80809z"/>
    <path d="m94.515 115.78c-0.0465 0.3996-0.40307 0.68719-0.79584 0.64268-0.39291-0.0456-0.6757-0.40451-0.62838-0.80852 0.04709-0.40433 0.40526-0.68923 0.79796-0.64225 0.39279 0.0466 0.67288 0.40805 0.62627 0.80809z"/>
    <path d="m98.524 117.26c-0.0463 0.39963-0.40307 0.68719-0.79584 0.64268-0.39291-0.0456-0.6757-0.40451-0.62838-0.8085 0.04709-0.40435 0.40526-0.68925 0.79796-0.64226 0.39278 0.0466 0.67287 0.40805 0.62626 0.80808z"/>
    <path d="m102.54 114.54c-0.0474 0.39949-0.40307 0.68719-0.79584 0.64268-0.39291-0.0456-0.6757-0.40451-0.62839-0.80851 0.0469-0.40435 0.40526-0.68924 0.79796-0.64224 0.39279 0.0466 0.6729 0.40803 0.62627 0.80807z"/>
    <path d="m106.46 111.66c-0.0474 0.39949-0.40308 0.68718-0.79585 0.64268-0.3929-0.0456-0.67569-0.40452-0.62838-0.80852 0.048-0.40422 0.40525-0.68923 0.79795-0.64225 0.39279 0.0466 0.67288 0.40805 0.62628 0.80809z"/>
   </g>
  </g>
 </g>
</svg>
